<svg width="121px" height="121px" viewBox="0 0 121 121" version="1.1" xmlns="http://www.w3.org/2000/svg" xmlns:xlink="http://www.w3.org/1999/xlink">
    <!-- Generator: Sketch 49.2 (51160) - http://www.bohemiancoding.com/sketch -->
    <desc>Created with Sketch.</desc>
    <defs></defs>
    <g id="Page-1" stroke="none" stroke-width="1" fill="none" fill-rule="evenodd">
        <g id="worth.uk-logo" fill="#000000">
            <polygon id="Combined-Shape" points="52.536 39.036 68 39.036 75 67.536 82 39.036 105.536 39 101.5 53.173 92.787 53.146 85.5 81.536 63.5 81.536 60.268 68.4540952 57.036 81.536 35.036 81.536 27.749 53.146 19.036 53.173 15 39 38.536 39.036 45.536 67.536"></polygon>
            <polygon id="top-left" points="0 0 0 30 4 30 4 4 30 4 30 0"></polygon>
            <polygon id="bottom-right" transform="translate(106.000000, 106.000000) scale(-1, -1) translate(-106.000000, -106.000000) " points="91 91 91 121 95 121 95 95 121 95 121 91"></polygon>
        </g>
    </g>
</svg>